<mxfile host="app.diagrams.net" modified="2023-03-11T00:13:31.576Z" agent="5.0 (Windows NT 10.0; Win64; x64) AppleWebKit/537.36 (KHTML, like Gecko) Chrome/111.0.0.0 Safari/537.36" etag="u-uV4PUL8MlIWI8-VXr6" version="21.0.6" type="github">
  <diagram id="uKSCkIeShm2LRwMu5ESm" name="第 1 页">
    <mxGraphModel dx="1434" dy="788" grid="1" gridSize="10" guides="1" tooltips="1" connect="1" arrows="1" fold="1" page="1" pageScale="1" pageWidth="827" pageHeight="1169" math="0" shadow="0">
      <root>
        <mxCell id="0" />
        <mxCell id="1" parent="0" />
        <mxCell id="-6DFPLStl2ryxL0GxFaJ-12" value="Actor" style="shape=umlActor;verticalLabelPosition=bottom;verticalAlign=top;html=1;" parent="1" vertex="1">
          <mxGeometry x="90" y="240" width="30" height="60" as="geometry" />
        </mxCell>
        <mxCell id="-6DFPLStl2ryxL0GxFaJ-36" value="" style="group" parent="1" vertex="1" connectable="0">
          <mxGeometry x="290.00428571428574" y="120.00333333333333" width="115.71428571428572" height="233.33333333333334" as="geometry" />
        </mxCell>
        <mxCell id="-6DFPLStl2ryxL0GxFaJ-23" value="" style="rounded=0;whiteSpace=wrap;html=1;container=0;" parent="-6DFPLStl2ryxL0GxFaJ-36" vertex="1">
          <mxGeometry width="115.71428571428572" height="233.33333333333334" as="geometry">
            <mxRectangle x="220" y="90" width="50" height="40" as="alternateBounds" />
          </mxGeometry>
        </mxCell>
        <mxCell id="-6DFPLStl2ryxL0GxFaJ-24" value="Use Case" style="ellipse;whiteSpace=wrap;html=1;container=0;direction=south;" parent="-6DFPLStl2ryxL0GxFaJ-36" vertex="1">
          <mxGeometry x="5.855714285714271" y="13.336666666666673" width="104" height="60" as="geometry">
            <mxRectangle x="5.855714285714271" y="9.99666666666667" width="90" height="30" as="alternateBounds" />
          </mxGeometry>
        </mxCell>
        <mxCell id="-uybsZtWF8NjtaPFCwVr-1" value="" style="verticalLabelPosition=bottom;verticalAlign=top;html=1;shape=mxgraph.basic.smiley" vertex="1" parent="1">
          <mxGeometry x="50" y="380" width="70" height="70" as="geometry" />
        </mxCell>
        <mxCell id="-uybsZtWF8NjtaPFCwVr-2" value="Button" style="labelPosition=center;verticalLabelPosition=middle;align=center;html=1;shape=mxgraph.basic.shaded_button;dx=10;fillColor=#E6E6E6;strokeColor=none;whiteSpace=wrap;" vertex="1" parent="1">
          <mxGeometry x="480" y="180" width="100" height="60" as="geometry" />
        </mxCell>
      </root>
    </mxGraphModel>
  </diagram>
</mxfile>
